<svg aria-hidden="true" style="position: absolute; width: 0; height: 0; overflow: hidden;" version="1.1" xmlns="http://www.w3.org/2000/svg" xmlns:xlink="http://www.w3.org/1999/xlink">
<defs>
<symbol id="icon-movie" viewBox="0 0 32 32">
<path fill="#f39014" style="fill: var(--color1, #f39014)" d="M2.377 10.362l-2.094 3.056c-0.177 0.257-0.283 0.575-0.283 0.918 0 0.554 0.277 1.044 0.699 1.338l0.005 0.004 3.718 2.548c0.211-0.289 0.549-0.474 0.929-0.474 0.634 0 1.148 0.514 1.148 1.148 0 0.232-0.069 0.448-0.187 0.628l0.003-0.004 15.503 10.626c0.257 0.177 0.575 0.283 0.918 0.283 0.554 0 1.044-0.277 1.339-0.699l0.003-0.005 2.088-3.046c-0.733-0.521-1.206-1.368-1.206-2.325 0-1.57 1.273-2.843 2.843-2.843 0.588 0 1.134 0.178 1.588 0.484l-0.010-0.006 2.336-3.408c0.177-0.257 0.283-0.575 0.283-0.918 0-0.554-0.277-1.044-0.699-1.339l-0.005-0.003-15.513-10.632c-0.021 0.047-0.043 0.086-0.067 0.123l0.002-0.004c-0.21 0.304-0.557 0.5-0.95 0.5-0.636 0-1.151-0.516-1.151-1.151 0-0.243 0.075-0.469 0.204-0.655l-0.002 0.004c0.028-0.038 0.057-0.072 0.088-0.104l-0 0-3.726-2.554c-0.257-0.177-0.575-0.283-0.918-0.283-0.554 0-1.044 0.277-1.339 0.7l-0.003 0.005-2.343 3.418c0.625 0.525 1.020 1.308 1.020 2.182 0 1.57-1.273 2.843-2.843 2.843-0.506 0-0.98-0.132-1.392-0.363l0.014 0.007zM13.065 7.646c0.304 0.21 0.5 0.557 0.5 0.95 0 0.636-0.515 1.151-1.151 1.151s-1.151-0.515-1.151-1.151c0-0.243 0.075-0.469 0.204-0.654l-0.002 0.004c0.21-0.304 0.557-0.5 0.95-0.5 0.243 0 0.468 0.075 0.654 0.204l-0.004-0.003zM10.71 11.082c0.303 0.21 0.5 0.557 0.5 0.949 0 0.636-0.515 1.151-1.151 1.151s-1.151-0.515-1.151-1.151c0-0.243 0.076-0.469 0.205-0.655l-0.002 0.004c0.21-0.304 0.557-0.5 0.949-0.5 0.244 0 0.47 0.076 0.656 0.205l-0.004-0.002zM8.355 14.517c0.304 0.21 0.501 0.557 0.501 0.95 0 0.636-0.515 1.151-1.151 1.151s-1.151-0.515-1.151-1.151c0-0.243 0.075-0.469 0.204-0.655l-0.003 0.004c0.21-0.304 0.557-0.5 0.95-0.5 0.243 0 0.469 0.075 0.655 0.204l-0.004-0.002z"></path>
<path fill="#fce367" style="fill: var(--color2, #fce367)" d="M2.117 25.102v3.705c0.003 0.897 0.729 1.623 1.625 1.625h4.507c0.024-0.615 0.529-1.105 1.147-1.105s1.123 0.49 1.147 1.102l0 0.002h18.796c0.896-0.003 1.623-0.729 1.625-1.625v-3.693c-1.555-0.019-2.808-1.285-2.808-2.843s1.253-2.823 2.807-2.843l0.002-0v-4.132c-0.003-0.897-0.729-1.623-1.625-1.626h-18.805c0.007 0.039 0.012 0.086 0.014 0.134l0 0.002c0 0.005 0 0.010 0 0.015 0 0.636-0.515 1.151-1.151 1.151s-1.151-0.515-1.151-1.151c0-0.005 0-0.011 0-0.016v0.001c0.002-0.050 0.007-0.096 0.015-0.142l-0.001 0.007h-4.518c-0.897 0.003-1.623 0.729-1.626 1.625v4.146c1.45 0.143 2.573 1.355 2.573 2.83s-1.123 2.688-2.561 2.83l-0.012 0.001zM9.398 16.821c0.636 0 1.151 0.515 1.151 1.151s-0.515 1.151-1.151 1.151c-0.636 0-1.151-0.515-1.151-1.151 0-0 0-0 0-0v0c0-0.636 0.515-1.151 1.151-1.151 0 0 0 0 0 0v0zM9.398 20.985c0.636 0 1.151 0.515 1.151 1.151s-0.515 1.151-1.151 1.151c-0.636 0-1.151-0.515-1.151-1.151 0-0 0-0 0-0v0c0-0.636 0.515-1.151 1.151-1.151 0 0 0 0 0 0v0zM9.398 25.15c0.636 0 1.151 0.515 1.151 1.151s-0.515 1.151-1.151 1.151c-0.636 0-1.151-0.515-1.151-1.151v0c0-0 0-0 0-0 0-0.636 0.515-1.151 1.151-1.151 0 0 0 0 0 0v0z"></path>
<path fill="#f8c140" style="fill: var(--color3, #f8c140)" d="M2.117 25.102v3.705c0.003 0.897 0.729 1.623 1.625 1.625h4.507c0.018-0.62 0.525-1.116 1.148-1.116h0v-1.862c-0.636 0-1.151-0.515-1.151-1.151s0.515-1.151 1.151-1.151v0-1.864c-0.636 0-1.151-0.515-1.151-1.151s0.515-1.151 1.151-1.151v0-1.862c-0.636 0-1.151-0.515-1.151-1.151s0.515-1.151 1.151-1.151v0-1.862c-0.636-0-1.151-0.516-1.151-1.151v-0c0.002-0.050 0.007-0.096 0.015-0.142l-0.001 0.007h-4.517c-0.897 0.003-1.623 0.729-1.626 1.625v4.146c1.45 0.143 2.573 1.355 2.573 2.83s-1.123 2.688-2.561 2.83l-0.012 0.001z"></path>
<path fill="#f39014" style="fill: var(--color1, #f39014)" d="M12.75 27.453c0-0 0-0 0-0 0-0.299 0.243-0.542 0.542-0.542h14.334c0.299 0 0.542 0.243 0.542 0.542v0c-0 0.299-0.243 0.541-0.542 0.541-0 0-0 0-0 0h-14.334c-0 0-0 0-0 0-0.299 0-0.541-0.242-0.541-0.541v0z"></path>
<path fill="#f39014" style="fill: var(--color1, #f39014)" d="M12.75 16.821c0-0.299 0.243-0.542 0.542-0.542v0h14.334c0.299 0 0.542 0.243 0.542 0.542v0c-0 0.299-0.243 0.541-0.542 0.541h-14.334c-0 0-0 0-0 0-0.299 0-0.541-0.242-0.541-0.541v0z"></path>
<path fill="#f39014" style="fill: var(--color1, #f39014)" d="M18.73 23.462c0.003-0.031 0.005-0.066 0.005-0.102 0-0.273-0.099-0.523-0.264-0.715l0.001 0.002-1.066-1.115c-0.18-0.189-0.117-0.38 0.141-0.422l1.521-0.253c0.296-0.068 0.541-0.248 0.693-0.493l0.003-0.005 0.732-1.358c0.124-0.23 0.325-0.229 0.445 0.003l0.711 1.369c0.151 0.252 0.394 0.435 0.681 0.506l0.008 0.002 1.517 0.276c0.258 0.047 0.319 0.238 0.135 0.425l-1.082 1.099c-0.17 0.193-0.274 0.447-0.274 0.726 0 0.030 0.001 0.059 0.004 0.089l-0-0.004 0.207 1.529c0.035 0.26-0.128 0.376-0.362 0.259l-1.38-0.689c-0.128-0.057-0.278-0.090-0.435-0.090-0.152 0-0.296 0.031-0.428 0.086l0.007-0.003-1.39 0.668c-0.236 0.114-0.397-0.005-0.359-0.265z"></path>
</symbol>
</defs>
</svg>
